<?xml version="1.0" encoding="UTF-8"?>
<svg version="1.1" xmlns="http://www.w3.org/2000/svg" width="64" height="77">
<path d="M0 0 C6.16169865 0.10932046 9.62468426 3.24968426 13.8125 7.4375 C14.67319092 8.1493042 15.53388184 8.8611084 16.4206543 9.59448242 C19.53210571 13.29284434 19.32902635 15.1568759 19.08203125 19.92578125 C19.03812508 20.9805793 19.03812508 20.9805793 18.99333191 22.0566864 C18.89481791 24.28972733 18.76048632 26.51892776 18.625 28.75 C18.5516601 30.26876732 18.48067094 31.7876501 18.41210938 33.30664062 C18.23943781 37.01865257 18.03461523 40.72808065 17.8125 44.4375 C18.8025 44.4375 19.7925 44.4375 20.8125 44.4375 C21.1425 36.5175 21.4725 28.5975 21.8125 20.4375 C29.76634615 20.4375 29.76634615 20.4375 33.125 22.1875 C33.78113281 22.51234375 34.43726563 22.8371875 35.11328125 23.171875 C37.14890577 24.6880643 37.69593357 26.19525232 38.8125 28.4375 C39.8025 28.7675 40.7925 29.0975 41.8125 29.4375 C46.8735814 36.56363803 46.56693199 44.79169578 45.45703125 53.09765625 C44.66533485 57.25913734 44.03649239 59.57082667 40.8125 62.4375 C40.1525 63.0975 39.4925 63.7575 38.8125 64.4375 C38.1525 65.0975 37.4925 65.7575 36.8125 66.4375 C36.338125 66.97375 35.86375 67.51 35.375 68.0625 C30.71875766 72.15999326 25.09679399 71.77226502 19.25 71.75 C17.97479492 71.77416992 17.97479492 71.77416992 16.67382812 71.79882812 C10.45388455 71.80370651 10.45388455 71.80370651 7.41796875 70.0703125 C6.88816406 69.53148438 6.35835937 68.99265625 5.8125 68.4375 C4.78125 67.633125 3.75 66.82875 2.6875 66 C0.09838326 63.69230899 -0.86450671 62.49056145 -2.1875 59.4375 C-2.9609375 58.81875 -2.9609375 58.81875 -3.75 58.1875 C-7.69069265 53.39013504 -6.34856895 43.60781846 -6.35546875 37.6640625 C-6.35879715 36.65910736 -6.36212555 35.65415222 -6.36555481 34.6187439 C-6.37059062 32.50934301 -6.37296418 30.39993424 -6.37280273 28.29052734 C-6.3750074 25.05162765 -6.39324758 21.81305912 -6.41210938 18.57421875 C-6.41504029 16.5208345 -6.41702711 14.46744863 -6.41796875 12.4140625 C-6.42515427 11.44328766 -6.43233978 10.47251282 -6.43974304 9.47232056 C-6.43666641 8.57733856 -6.43358978 7.68235657 -6.43041992 6.76025391 C-6.43184494 5.97163971 -6.43326996 5.18302551 -6.43473816 4.37051392 C-5.92719756 0.40234392 -3.46908023 0.10150493 0 0 Z " fill="#EB4B55" transform="translate(13.1875,3.5625)"/>
<path d="M0 0 C6.16169865 0.10932046 9.62468426 3.24968426 13.8125 7.4375 C14.67319092 8.14479248 15.53388184 8.85208496 16.4206543 9.58081055 C19.42320904 13.16689742 19.38646196 15.70049871 19.08203125 20.14453125 C19.03812508 21.23262337 19.03812508 21.23262337 18.99333191 22.34269714 C18.89479169 24.6470043 18.76046372 26.947598 18.625 29.25 C18.55166314 30.81694802 18.48067383 32.38400778 18.41210938 33.95117188 C18.23939841 37.78177541 18.03458556 41.60945458 17.8125 45.4375 C17.4825 45.4375 17.1525 45.4375 16.8125 45.4375 C16.8125 38.5075 16.8125 31.5775 16.8125 24.4375 C14.8325 24.1075 12.8525 23.7775 10.8125 23.4375 C10.1525 23.1075 9.4925 22.7775 8.8125 22.4375 C6.73641307 23.06052813 6.73641307 23.06052813 4.5 24.125 C3.74074219 24.45886719 2.98148438 24.79273437 2.19921875 25.13671875 C-0.53520014 26.62699942 -2.77893083 28.47167332 -5.1875 30.4375 C-5.37974376 26.4870047 -5.55846681 22.53615416 -5.72460938 18.58447266 C-5.78305475 17.23990434 -5.84521076 15.89549202 -5.91113281 14.55126953 C-6.00517443 12.62056663 -6.08482692 10.6891797 -6.1640625 8.7578125 C-6.24261475 7.01395264 -6.24261475 7.01395264 -6.32275391 5.23486328 C-6.1033831 0.69776817 -4.11280028 0.12034011 0 0 Z " fill="#E9544F" transform="translate(13.1875,3.5625)"/>
<path d="M0 0 C0.33 0 0.66 0 1 0 C1.33 7.92 1.66 15.84 2 24 C4.31 22.02 6.62 20.04 9 18 C12.91595352 16.23398175 14.94669547 15.81091495 19 17 C17.80375 17.515625 16.6075 18.03125 15.375 18.5625 C8.36776313 22.08472172 4.46458758 27.60623727 2 35 C1.51925482 37.67709081 1.23816258 40.2849466 1 43 C0.67 43 0.34 43 0 43 C0 28.81 0 14.62 0 0 Z " fill="#861816" transform="translate(7,9)"/>
<path d="M0 0 C7 0 7 0 9 1 C8.67 2.65 8.34 4.3 8 6 C6.02 6.66 4.04 7.32 2 8 C1.67 13.28 1.34 18.56 1 24 C0.67 24 0.34 24 0 24 C0 16.08 0 8.16 0 0 Z " fill="#E25B3F" transform="translate(35,24)"/>
<path d="M0 0 C2.05859375 -0.3984375 2.05859375 -0.3984375 4.4375 -0.375 C5.21996094 -0.38273438 6.00242187 -0.39046875 6.80859375 -0.3984375 C9.4428201 0.08051275 10.32614504 0.96553963 12 3 C11 4 11 4 8.375 4.125 C4.85598016 3.99466593 1.47512338 3.55601974 -2 3 C-1.34 2.01 -0.68 1.02 0 0 Z " fill="#B24C2E" transform="translate(9,4)"/>
<path d="M0 0 C0 7.92 0 15.84 0 24 C-0.33 24 -0.66 24 -1 24 C-1 17.07 -1 10.14 -1 3 C-3.97 2.505 -3.97 2.505 -7 2 C-4 0 -4 0 0 0 Z " fill="#FC6B4E" transform="translate(31,25)"/>
<path d="M0 0 C0.99 0.33 1.98 0.66 3 1 C2.071875 1.5775 1.14375 2.155 0.1875 2.75 C-3.93614513 5.66080833 -6.10556521 7.99116517 -7 13 C-7.99 12.67 -8.98 12.34 -10 12 C-8.69041436 6.59795923 -4.56696036 2.91200245 0 0 Z " fill="#F26441" transform="translate(21,27)"/>
<path d="M0 0 C1.32 1.65 2.64 3.3 4 5 C3.34 5 2.68 5 2 5 C2 5.66 2 6.32 2 7 C0.68 7.33 -0.64 7.66 -2 8 C-2.6875 6.25 -2.6875 6.25 -3 4 C-1.5625 1.75 -1.5625 1.75 0 0 Z " fill="#CD4741" transform="translate(10,52)"/>
<path d="M0 0 C0.99 0.66 1.98 1.32 3 2 C1 4 -1 6 -3 8 C-3 6.68 -3 5.36 -3 4 C-3.66 3.67 -4.32 3.34 -5 3 C-3.35 2.67 -1.7 2.34 0 2 C0 1.34 0 0.68 0 0 Z " fill="#B5254E" transform="translate(53,62)"/>
<path d="M0 0 C0.66 0.33 1.32 0.66 2 1 C2.05399736 2.45792884 2.09279177 3.91642712 2.125 5.375 C2.14820313 6.18710937 2.17140625 6.99921875 2.1953125 7.8359375 C2 10 2 10 0 12 C-0.19477739 10.37585622 -0.38059458 8.75063577 -0.5625 7.125 C-0.66691406 6.22007813 -0.77132812 5.31515625 -0.87890625 4.3828125 C-1 2 -1 2 0 0 Z " fill="#C33A52" transform="translate(57,44)"/>
<path d="M0 0 C0.33 0 0.66 0 1 0 C1.04254356 1.99954746 1.04080783 4.00041636 1 6 C0.67 6.33 0.34 6.66 0 7 C-0.23075082 8.34747084 -0.41153063 9.70377565 -0.5625 11.0625 C-0.706875 12.361875 -0.85125 13.66125 -1 15 C-1.33 15 -1.66 15 -2 15 C-2.3690205 4.44191344 -2.3690205 4.44191344 0 0 Z " fill="#ED6A56" transform="translate(10,39)"/>
<path d="M0 0 C1.32 0.66 2.64 1.32 4 2 C4 2.66 4 3.32 4 4 C2.35 4.66 0.7 5.32 -1 6 C-0.67 4.02 -0.34 2.04 0 0 Z " fill="#B4234E" transform="translate(45,68)"/>
<path d="M0 0 C-0.33 0.99 -0.66 1.98 -1 3 C-2.65 3.33 -4.3 3.66 -6 4 C-6 2.68 -6 1.36 -6 0 C-3 -1 -3 -1 0 0 Z " fill="#C2513D" transform="translate(44,25)"/>
<path d="" fill="#0B0000" transform="translate(0,0)"/>
<path d="" fill="#240004" transform="translate(0,0)"/>
<path d="" fill="#210005" transform="translate(0,0)"/>
<path d="" fill="#0E0000" transform="translate(0,0)"/>
<path d="" fill="#100000" transform="translate(0,0)"/>
<path d="" fill="#1A0000" transform="translate(0,0)"/>
<path d="" fill="#240002" transform="translate(0,0)"/>
<path d="" fill="#320000" transform="translate(0,0)"/>
<path d="" fill="#3C0000" transform="translate(0,0)"/>
<path d="" fill="#2F0000" transform="translate(0,0)"/>
<path d="" fill="#330000" transform="translate(0,0)"/>
<path d="" fill="#280000" transform="translate(0,0)"/>
<path d="" fill="#110000" transform="translate(0,0)"/>
<path d="" fill="#1E0B00" transform="translate(0,0)"/>
<path d="" fill="#110000" transform="translate(0,0)"/>
<path d="" fill="#110000" transform="translate(0,0)"/>
</svg>
